PathFileType	4	(X/Y/Z)	path1_03_0-527.trc
DataRate	CameraRate	NumFrames	NumMarkers	Units	OrigDataRate	OrigDataStartFrame	OrigNumFrames
30	30	8	22	m	30	395	527
Frame#	Time	Hip			RHip			RKnee			RAnkle			RBigToe			RSmallToe			RHeel			LHip			LKnee			LAnkle			LBigToe			LSmallToe			LHeel			Neck			Head			Nose			RShoulder			RElbow			RWrist			LShoulder			LElbow			LWrist		
		X1	Y1	Z1	X2	Y2	Z2	X3	Y3	Z3	X4	Y4	Z4	X5	Y5	Z5	X6	Y6	Z6	X7	Y7	Z7	X8	Y8	Z8	X9	Y9	Z9	X10	Y10	Z10	X11	Y11	Z11	X12	Y12	Z12	X13	Y13	Z13	X14	Y14	Z14	X15	Y15	Z15	X16	Y16	Z16	X17	Y17	Z17	X18	Y18	Z18	X19	Y19	Z19	X20	Y20	Z20	X21	Y21	Z21	X22	Y22	Z22
396	13.2	1.2286769755563103	0.8340422692652878	0.7120141831665441	1.2472162529193818	0.808779434257176	0.6165947835780496	1.3119618408350493	0.4720013256949138	0.6120608138562187	1.5065668049490675	0.13605113370239333	0.6564588118275668	1.3701245592168882	0.027589249369607653	0.6479392153795064	1.4083344825001949	0.03034408113549634	0.6038750406907517	1.568399979252769	0.08123088973339351	0.669941713007513	1.2206160655440492	0.8039886455734899	0.8102593566768717	1.0509794605760656	0.47575575482461896	0.8008368752462155	0.9539678141165916	0.11411667883926499	0.7970264627874843	0.7681564728382475	0.07606028562420758	0.8076335393485105	0.8093275359214388	0.06852429214604175	0.8608230524888465	0.9705128563805073	0.04073189727758409	0.7809068628405252	1.1677462941155934	1.4273390971357207	0.727891288095016	1.0943160276914925	1.6668003465191503	0.7365851826719509	1.0220144641719207	1.5330386442946735	0.7208784791221128	1.1846916823808185	1.332277025610112	0.5452227095323713	1.1212650059315956	1.076529082458243	0.4957134609915981	0.952051925472038	0.8876355806456071	0.485047234729916	1.2234333741554981	1.3429468879258	0.8970430364701398	1.3097147782450178	1.0810711132508941	0.92588039336606	1.3440560395521255	0.8318637538150315	0.947944226112275
397	13.233333333333333	1.1862125014701734	0.8337836698363147	0.7181725928574921	1.2026537092118479	0.8078819533723289	0.6229231219975263	1.2643511289116403	0.4710810792971536	0.6166117451855361	1.4853084603587796	0.15517474057584774	0.6536733135574743	1.3659468861367492	0.027502548273489733	0.6434599618268898	1.4081197433146893	0.03532737648340488	0.6036912392496755	1.5519647059917643	0.10606710367747282	0.6641849590493295	1.1774890850785948	0.8025311003638592	0.8139168761468546	1.017108121122329	0.47271318290797254	0.8015360779881927	0.9387378957301815	0.11300069564008333	0.7962548906108541	0.7502738417673437	0.0643782676507167	0.8041909528679775	0.7924436043457086	0.05696960430997446	0.8568751636302593	0.9611765481497426	0.0405945943499832	0.780853385995423	1.1283436306381072	1.428278625262287	0.7356058938921805	1.0565596416624514	1.6671673286591988	0.7443944100750909	0.9813276804071981	1.5345241217557255	0.7270551228864661	1.1458082588916032	1.3337168751956607	0.5519833064070916	1.0873317187336913	1.0751810256294474	0.5018098997445781	0.9224605372106447	0.8858523044981306	0.49109529322252826	1.1832799405273589	1.3422632683875715	0.9033254536368083	1.2638357878225293	1.0772092741188832	0.9281088872356472	1.296777349066325	0.8280675998216207	0.9520275014265254
398	13.266666666666667	1.1425886372669654	0.8349668465801584	0.7244125531553754	1.1560797386732207	0.8088756229515379	0.6294716562039687	1.2067227281492912	0.4699867284683935	0.6218254530587498	1.4531902047950065	0.17755998492653471	0.6504772649480046	1.3560183389883667	0.028577312144049814	0.6388912206983766	1.4014359274699848	0.043751331651675086	0.602661649253386	1.5243344956129412	0.13638635806898214	0.6582477972404417	1.1339976489229033	0.8030777854113549	0.817656914461346	0.9864179007233735	0.47129852194612715	0.8032863202780712	0.9318013429978278	0.11199844832852515	0.7958984354722999	0.7413209515113721	0.052271948041905616	0.8019504820308756	0.7838897720601902	0.04539986160837103	0.8539793153196819	0.9609602819233254	0.040463930046866756	0.7819007528436013	1.0890632767273127	1.4308640302458606	0.7427286657057912	1.0157397453182846	1.6690972979207663	0.7501815779800748	0.9405404467394224	1.537674064268748	0.7333515399960202	1.107499015540991	1.3368382967801333	0.5584824975609664	1.05604856693879	1.0742527116303926	0.5083542523036435	0.8996875845181884	0.8826701641939876	0.4967549406525008	1.1423837145282338	1.3431878874112277	0.9100426621874541	1.2136668183218495	1.073748396767649	0.9307106727178874	1.2429889191846795	0.8253427937924093	0.9587611158885799
399	13.3	1.0987569562363197	0.83750618859892	0.7301826718639146	1.1086568874320515	0.8119188996901022	0.6355210629873271	1.1399337338674367	0.4702767656898416	0.6269626495525309	1.409011700324277	0.20075403715509293	0.6472063409467003	1.3354625699412923	0.03148616725671899	0.6350651365449245	1.3826975308628806	0.05519267448001305	0.6011688273548219	1.4834319900839303	0.16908571819640167	0.6528380195055381	1.0910543664763208	0.8056773466906073	0.8212362777036306	0.9598562322636689	0.47113018906480336	0.8061024350411884	0.9292332626704042	0.11090214053338242	0.7958004829626262	0.7380860685588897	0.04183977868286868	0.8008966582051122	0.7799610559900432	0.035800523220179375	0.8520451804949748	0.964345061936833	0.040249366921188315	0.7834048329512161	1.0501521644541818	1.4348909339252864	0.7488054449930086	0.9713635375087821	1.6726380268421193	0.7508692509546953	0.8997102268844083	1.5419985858753835	0.7389582640766912	1.0703517695790368	1.3411962032723288	0.5642556039676921	1.02748548494393	1.0739499649174065	0.5148696949159888	0.883133285179783	0.8786105358993327	0.5018471987266758	1.1010527409911495	1.345501463734327	0.916741215083917	1.159577554514885	1.0711575570587055	0.9337165011609075	1.1823797543074288	0.8246651624784974	0.9679847678740982
400	13.333333333333334	1.0557433197071306	0.8411724295183294	0.7351607755184913	1.0617783842915967	0.816759678047531	0.6405079202326713	1.066514487417877	0.47372516139679915	0.6313469673527676	1.3530884381677097	0.22159961427583594	0.6445229750690284	1.2981415974377704	0.03675019983849729	0.632711443884758	1.345311617206696	0.06784766673059958	0.5996313616617823	1.4286150004250124	0.1989618736804878	0.6486187394110918	1.04936981183075	0.8100617090626305	0.8245335362957681	0.9377480842157504	0.4718550344849263	0.8096466215852449	0.9284555338386051	0.10975312842339216	0.7957765066616836	0.7378200558332366	0.033976356691795204	0.8007489839243185	0.7782894311311875	0.028807284057814554	0.8508776008441518	0.9676629298090743	0.03990788567077143	0.7847727135648355	1.0118548554550213	1.4398969120373335	0.753789144575099	0.9227178573216438	1.6774676824814996	0.7440288571134187	0.8584188117319044	1.5470308359002924	0.7432162879008517	1.0347840549870182	1.3462152820358313	0.5691228570567635	1.001622116456244	1.0744777861938923	0.5209166403062176	0.8719590743841282	0.8742199896001833	0.5061498579194545	1.0597034350251748	1.3486110006924223	0.9230468064051919	1.102517832991984	1.0697588994294276	0.9375838635255789	1.115386421932891	0.8266905913576285	0.9791028867161862
401	13.366666666666667	1.0142588870023905	0.8456312496404629	0.7392716119598651	1.0166324237384436	0.8228788232686309	0.6441033302708552	0.9901848120612815	0.48109577522774344	0.634762929725159	1.2863623709813037	0.23689647070914574	0.6431306236523878	1.2388914457066753	0.04418461390261709	0.6322375879177231	1.2843220412478953	0.0789624945656684	0.5983355674562867	1.360554953157091	0.22002921608440026	0.6461357232555953	1.0093361525783953	0.8156878973470211	0.8275297219903561	0.9198083457062365	0.47296861102200294	0.8135228457967746	0.9280327487370406	0.10878653092035906	0.7957434531333633	0.7383387361290231	0.028726418029499417	0.8011901304985555	0.7775830459872086	0.024171003247718193	0.8503150504094467	0.9690975044359191	0.039520098354998534	0.7857301559253085	0.9744148313848757	1.4452323225454617	0.7578814318662445	0.8692020705261561	1.6831375828920285	0.7297712390992597	0.8164941091205163	1.5524353379820397	0.7459683603637072	1.0008659427096558	1.3513230990331102	0.5731640641881364	0.9782123847205321	1.0760505587169464	0.526333694797179	0.8650402174341499	0.8699473506762666	0.5094657459523325	1.0187426349868942	1.3517472542285025	0.9287379369305196	1.0443088105831877	1.0699281948141377	0.9432489251264238	1.0436413746258264	0.8315451585515097	0.9911098963510901
402	13.4	0.9745587236200595	0.8504171169147957	0.7426001745238623	0.9738704521138695	0.8294729294402887	0.6461912842362096	0.9149864712320861	0.49162227419333593	0.6373075413284077	1.2094100235243326	0.2441156618818857	0.6430935861997555	1.155962767853307	0.05230418475789548	0.6335330782263021	1.1988278337015963	0.08581130885760684	0.5972771984031047	1.2803737517550549	0.227459353794316	0.6454753864824327	0.971138342683947	0.821653554414699	0.830237682232464	0.9052752216145585	0.47394441034318713	0.8174190666783353	0.9272828940154814	0.10825391303870759	0.7957304327702621	0.7382927244467392	0.025657522952093222	0.8019718873203027	0.7772959982912533	0.021315535258978578	0.8502180598915945	0.9682722102213687	0.03922807325597553	0.7863344123616668	0.9379229671201619	1.4502282949865188	0.7613132524614591	0.8134246093718712	1.6889430247312573	0.712265398463649	0.7745951224576485	1.5579338807590914	0.7479576383814515	0.9683307810411054	1.3559957454576725	0.5766247230975942	0.9568003321007963	1.078713555802387	0.5312285596606159	0.86102879476463	0.8660860167766877	0.5116974214018754	0.9783718831684288	1.3543043447568743	0.9337396069802231	0.9871437058654637	1.0719930019141786	0.9514686524399364	0.9693953733110767	0.8388300889902705	1.002867742209292
403	13.433333333333334	0.9365389696205708	0.8549063399538237	0.7452768988166888	0.933436756614326	0.8354445672931311	0.6468721846284919	0.8442789952703006	0.5034529507192868	0.639146565975953	1.1222241633082113	0.24196808629392794	0.6436903585796251	1.0516307864504517	0.058759613072192636	0.6359105004278504	1.0920934824651773	0.08667736218512578	0.5960736076818994	1.1889096238656407	0.21933440911041044	0.6460126625720268	0.934836348706574	0.8267689089116621	0.8327046629919608	0.8930831498056784	0.4746079109462791	0.8211762916919093	0.9259693579923872	0.10816853535849051	0.7958050504436169	0.7372413061360902	0.02419060986754852	0.802954424814637	0.7774621414324937	0.019669702599103858	0.8504631824965824	0.9657305851362984	0.038982636087397556	0.7868055938398808	0.9022124182514394	1.4543212800994056	0.7642217232153609	0.7635512706991832	1.6936670157633151	0.6998240384971538	0.7341053525540905	1.5631764554659915	0.7506374610402354	0.9366991587280991	1.359768323865651	0.5797871200288366	0.9368683255124892	1.082180806628603	0.5356834840533573	0.8585569030842346	0.8627752405772426	0.5128484076203249	0.9384695660983423	1.3561073547635196	0.937990072119013	0.9324200995571995	1.0757549743790829	0.9619460893388094	0.8946146798447596	0.8478735383839373	1.0134344711144916
